<svg height='300px' width='300px'  fill="#000000" xmlns="http://www.w3.org/2000/svg" xmlns:xlink="http://www.w3.org/1999/xlink" version="1.1" x="0px" y="0px" viewBox="0 0 100 100" enable-background="new 0 0 100 100" xml:space="preserve"><g><path fill="#000000" d="M80.751,65.296c-3.742-5.389-9.497-5.6-15.501-5.546c-0.697,0.006-1.234,0.253-1.63,0.623   c-4.768,0.707-8.988,3.223-11.862,6.953c-3.505-2.076-6.888-4.435-9.838-7.145c1.749-3.594,2.603-7.631,2.325-11.451   c-0.381-5.242-2.725-9.412-6.151-12.497c4.634-3.455,8.943-7.352,13.218-11.256c2.279,3.596,5.978,6.162,10.507,6.765   c9.814,1.305,18.288-9.219,16.464-18.561C75.871,0.821,62.047-0.361,52.988,5.341c-0.985,0.62-1.278,1.582-1.13,2.477   c-2.083,2.277-3.155,5.576-3.019,9.129c0.041,1.077,0.195,2.124,0.432,3.139c-4.991,4.563-9.954,9.211-15.465,13.124   c-2.46-1.349-5.188-2.309-8.002-2.871c-0.55-0.683-1.403-1.144-2.469-0.999c-0.714,0.097-1.419,0.247-2.116,0.44   c-0.24-0.011-0.48-0.024-0.719-0.029c-0.973-0.023-1.646,0.419-2.032,1.045c-8.23,3.83-14.351,13.898-13.013,22.706   c1.683,11.082,12.137,19.652,23.383,17.483c4.218-0.814,7.75-3.254,10.374-6.51c1.135,0.978,2.371,1.863,3.56,2.762   c2.087,1.577,4.271,3.032,6.514,4.389c-0.726,1.773-1.203,3.698-1.374,5.746c-0.8,9.562,8.03,17.934,17.4,16.385   c8.412-1.391,15.895-8.214,17.903-16.517C84.225,73.064,83.163,68.77,80.751,65.296z M73.478,14.872   c0.728,7.168-6.173,13.436-13.123,11.53c-2.245-0.616-4.067-2.551-5.214-4.896c0.459-0.413,0.916-0.829,1.377-1.237   c2.15-1.906-0.418-4.892-2.703-4.035C53.723,12.575,55.507,9.43,60,9.75c1.718,0.122,2.504-1.245,2.385-2.582   C67.601,6.443,72.809,8.286,73.478,14.872z M30.003,65.337c-8.037,4.113-16.775-3.008-19.2-10.457   c-2.558-7.858,3.628-17.326,11.194-20.052c2.672,0.204,5.234,0.789,7.54,1.783c-0.887,2.005,1.707,4.246,3.638,3.032   c0.22-0.138,0.429-0.291,0.648-0.432c2.595,2.153,4.512,5.116,5.34,8.985c0.651,3.04,0.14,6.093-1.136,8.826   c-1.633-0.91-3.351-1.089-4.686,0.966c-1.071,1.648,0.109,3.211,1.591,3.586C33.499,63.115,31.816,64.41,30.003,65.337z    M78.193,76.742c-1.331,5.503-6.516,9.907-11.7,11.635c-6.448,2.149-11.665-1.847-13.348-8.078   c-0.611-2.263-0.456-4.415,0.243-6.351c0.285,0.151,0.565,0.313,0.851,0.46c2.862,1.472,5.391-2.842,2.524-4.317   c-0.234-0.12-0.468-0.248-0.703-0.371c3.271-3.417,8.442-5.274,13.026-4.31c0.817,0.172,1.508-0.03,2.034-0.429   c2.251,0.383,4.267,1.331,5.869,3.638C78.671,71.042,78.866,73.956,78.193,76.742z"></path><path fill="#000000" d="M25.75,57.75c-3.545,0.029-7.61-4.899-7.75-8.25c-0.134-3.212-5.135-3.225-5,0   c0.254,6.061,6.386,13.302,12.75,13.25C28.973,62.724,28.975,57.724,25.75,57.75z"></path></g></svg>